<svg fill="none" height="62" viewBox="0 0 546 62" width="546" xmlns="http://www.w3.org/2000/svg"><path d="m.605027 59.6763v-56.06303h35.800273v7.76873h-26.1895v16.4184h21.3841v7.6086h-21.3841v24.2673zm55.168873.961c-3.2036 0-5.9534-.6674-8.2493-2.0022-2.2959-1.3882-4.0579-3.4172-5.2859-6.0868-1.2281-2.7231-1.8421-6.0602-1.8421-10.0113v-22.5854h9.6108v21.6243c0 3.524.7208 6.247 2.1624 8.1692 1.4417 1.8688 3.6842 2.8032 6.7276 2.8032 1.9756 0 3.7108-.4806 5.2059-1.4417 1.5484-.961 2.7497-2.3226 3.604-4.0846.9077-1.8153 1.3615-4.0045 1.3615-6.5673v-20.5031h9.6108v39.7247h-8.2492l-.8009-6.3271h-.3204c-1.2814 2.2425-3.0434 4.0312-5.2859 5.366-2.1892 1.2814-4.9389 1.9221-8.2493 1.9221zm46.6711-.961c-2.6696 0-5.0189-.4272-7.0478-1.2815-2.029-.8543-3.6041-2.2692-4.7253-4.2447-1.0679-1.9756-1.6018-4.6453-1.6018-8.009v-18.661h-6.8077v-7.5285h6.8077l1.0411-10.41167h8.5697v10.41167h10.8921v7.5285h-10.8921v18.661c0 2.1891.4271 3.6841 1.2814 4.485.8547.8009 2.3497 1.2013 4.4847 1.2013h4.806v7.8489zm25.754.961c-3.204 0-5.953-.6674-8.249-2.0022-2.296-1.3882-4.058-3.4172-5.286-6.0868-1.228-2.7231-1.842-6.0602-1.842-10.0113v-22.5854h9.611v21.6243c0 3.524.72 6.247 2.162 8.1692 1.442 1.8688 3.684 2.8032 6.728 2.8032 1.975 0 3.71-.4806 5.205-1.4417 1.549-.961 2.75-2.3226 3.604-4.0846.908-1.8153 1.362-4.0045 1.362-6.5673v-20.5031h9.611v39.7247h-8.249l-.801-6.3271h-.321c-1.281 2.2425-3.043 4.0312-5.286 5.366-2.189 1.2814-4.939 1.9221-8.249 1.9221zm29.292-.961v-39.7247h8.249l.801 8.6498h.32c1.228-2.7765 2.51-4.8588 3.845-6.2471 1.388-1.3882 2.963-2.2959 4.725-2.723 1.762-.4272 3.817-.6407 6.167-.6407v10.0913h-2.563c-1.922 0-3.658.2403-5.206.7208-1.495.4805-2.75 1.2013-3.764 2.1624-.961.9077-1.709 2.1091-2.243 3.6041-.48 1.4416-.721 3.2036-.721 5.2859v18.8212zm46.048.961c-4.004 0-7.555-.8542-10.652-2.5628-3.043-1.762-5.446-4.1647-7.208-7.2081-1.708-3.0968-2.563-6.7009-2.563-10.8122 0-4.1647.855-7.8221 2.563-10.9723 1.709-3.1502 4.085-5.6063 7.128-7.3683 3.097-1.8154 6.701-2.723 10.812-2.723 3.898 0 7.315.8809 10.252 2.6429 2.99 1.7086 5.286 4.0045 6.888 6.8878 1.655 2.8832 2.482 6.1402 2.482 9.7709v1.762c0 .6407-.053 1.3349-.16 2.0824h-32.997v-6.167h23.467c-.161-2.9366-1.175-5.2325-3.044-6.8877-1.869-1.7086-4.191-2.5629-6.968-2.5629-1.975 0-3.817.4539-5.526 1.3615-1.655.8543-2.99 2.1892-4.004 4.0045-.961 1.762-1.442 4.0312-1.442 6.8077v2.3226c0 2.4561.481 4.5651 1.442 6.3271s2.269 3.1235 3.924 4.0846c1.709.9077 3.551 1.3615 5.526 1.3615 2.189 0 4.031-.4805 5.526-1.4416 1.495-1.0145 2.617-2.376 3.364-4.0846h9.771c-.747 2.5629-2.002 4.8588-3.764 6.8878-1.709 1.9755-3.818 3.5506-6.327 4.7253-2.51 1.1746-5.339 1.7619-8.49 1.7619zm60.54-60.5479892 5.767 6.0067492-24.588 24.58764 24.668 24.6677-5.847 5.9267-30.594-30.5944zm15.042 59.5869892v-56.06303h35.8v7.76873h-26.189v16.4184h21.384v7.6086h-21.384v24.2673zm40.593 0v-56.06303h9.61v56.06303zm31.392.961c-3.204 0-5.954-.6674-8.25-2.0022-2.295-1.3882-4.057-3.4172-5.285-6.0868-1.229-2.7231-1.843-6.0602-1.843-10.0113v-22.5854h9.611v21.6243c0 3.524.721 6.247 2.163 8.1692 1.441 1.8688 3.684 2.8032 6.727 2.8032 1.976 0 3.711-.4806 5.206-1.4417 1.549-.961 2.75-2.3226 3.604-4.0846.908-1.8153 1.362-4.0045 1.362-6.5673v-20.5031h9.61v39.7247h-8.249l-.801-6.3271h-.32c-1.281 2.2425-3.043 4.0312-5.286 5.366-2.189 1.2814-4.939 1.9221-8.249 1.9221zm46.671-.961c-2.67 0-5.019-.4272-7.048-1.2815s-3.604-2.2692-4.725-4.2447c-1.068-1.9756-1.602-4.6453-1.602-8.009v-18.661h-6.808v-7.5285h6.808l1.041-10.41167h8.57v10.41167h10.892v7.5285h-10.892v18.661c0 2.1891.427 3.6841 1.281 4.485s2.349 1.2013 4.485 1.2013h4.806v7.8489zm28.157 0c-2.67 0-5.019-.4272-7.048-1.2815s-3.604-2.2692-4.726-4.2447c-1.068-1.9756-1.601-4.6453-1.601-8.009v-18.661h-6.808v-7.5285h6.808l1.041-10.41167h8.569v10.41167h10.893v7.5285h-10.893v18.661c0 2.1891.428 3.6841 1.282 4.485s2.349 1.2013 4.485 1.2013h4.805v7.8489zm28.982.961c-4.005 0-7.556-.8542-10.652-2.5628-3.044-1.762-5.447-4.1647-7.209-7.2081-1.708-3.0968-2.562-6.7009-2.562-10.8122 0-4.1647.854-7.8221 2.562-10.9723 1.709-3.1502 4.085-5.6063 7.128-7.3683 3.097-1.8154 6.701-2.723 10.813-2.723 3.897 0 7.315.8809 10.251 2.6429 2.99 1.7086 5.286 4.0045 6.888 6.8878 1.655 2.8832 2.483 6.1402 2.483 9.7709v1.762c0 .6407-.054 1.3349-.161 2.0824h-32.997v-6.167h23.467c-.16-2.9366-1.175-5.2325-3.044-6.8877-1.868-1.7086-4.191-2.5629-6.967-2.5629-1.976 0-3.818.4539-5.527 1.3615-1.655.8543-2.99 2.1892-4.004 4.0045-.961 1.762-1.442 4.0312-1.442 6.8077v2.3226c0 2.4561.481 4.5651 1.442 6.3271s2.269 3.1235 3.924 4.0846c1.709.9077 3.551 1.3615 5.526 1.3615 2.19 0 4.032-.4805 5.527-1.4416 1.495-1.0145 2.616-2.376 3.363-4.0846h9.771c-.747 2.5629-2.002 4.8588-3.764 6.8878-1.708 1.9755-3.817 3.5506-6.327 4.7253-2.509 1.1746-5.339 1.7619-8.489 1.7619zm24.499-.961v-39.7247h8.249l.801 8.6498h.32c1.229-2.7765 2.51-4.8588 3.845-6.2471 1.388-1.3882 2.963-2.2959 4.725-2.723 1.762-.4272 3.818-.6407 6.167-.6407v10.0913h-2.563c-1.922 0-3.657.2403-5.206.7208-1.495.4805-2.749 1.2013-3.764 2.1624-.961.9077-1.709 2.1091-2.242 3.6041-.481 1.4416-.721 3.2036-.721 5.2859v18.8212zm35.937 1.6018-5.847-5.9267 24.668-24.6677-24.668-24.58764 5.847-6.0067492 30.594 30.5943892z" fill="#fff"/></svg>