<svg fill="none" height="173" viewBox="0 0 156 173" width="156" xmlns="http://www.w3.org/2000/svg" xmlns:xlink="http://www.w3.org/1999/xlink"><filter id="a" color-interpolation-filters="sRGB" filterUnits="userSpaceOnUse" height="172" width="155.151" x=".425293" y=".236328"><feFlood flood-opacity="0" result="BackgroundImageFix"/><feColorMatrix in="SourceAlpha" result="hardAlpha" type="matrix" values="0 0 0 0 0 0 0 0 0 0 0 0 0 0 0 0 0 0 127 0"/><feOffset dy="2"/><feGaussianBlur stdDeviation="2"/><feComposite in2="hardAlpha" operator="out"/><feColorMatrix type="matrix" values="0 0 0 0 0 0 0 0 0 0 0 0 0 0 0 0 0 0 0.25 0"/><feBlend in2="BackgroundImageFix" mode="normal" result="effect1_dropShadow_2030_175"/><feBlend in="SourceGraphic" in2="effect1_dropShadow_2030_175" mode="normal" result="shape"/></filter><g fill="#fff" filter="url(#a)"><path clip-rule="evenodd" d="m100.877 156.081-5.5376-5.377c-1.6969-1.521-6.4409-6.311-12.3411-12.37-3.9432-4.047-3.8998-10.517.0954-14.512l33.0483-33.0458c1.096-1.0927 2.663-1.5668 4.18-1.2633l22.59 4.5271c3.633.7285 4.978 5.2239 2.335 7.826-7.069 6.96-18.98 18.696-29.308 28.984l27.378 27.497c2.903 2.917.839 7.889-3.278 7.889h-24.194c-3.064 0-6.007-1.22-8.175-3.388l-6.856-6.856c.021.031.042.06.063.089zm.736.714s-.362-.205-.736-.714z" fill-rule="evenodd"/><path d="m146.872 35.8106-32.803.4597c-2.321.0318-4.538.9684-6.18 2.6104l-52.9611 52.9609c-4.715 4.715-4.8018 12.3354-.1908 17.1544 3.4257 3.582 7.6232 7.962 12.0145 12.529 1.7027 1.772 4.5271 1.801 6.2645.064l43.4929-43.4935 33.734-34.4159c2.894-2.9516.76-7.9297-3.371-7.869z"/><path clip-rule="evenodd" d="m37.8434 2.69251-29.22726-.45567c-2.96037-.04696-4.76728 3.12864-4.02225 5.89489h41.32421l-2.5683-2.85422c-1.4614-1.62402-3.4379-2.55287-5.5064-2.585zm-20.0565 21.13779-6.922-7.8479h42.1176l7.0618 7.8479zm6.9245 7.8507 6.9282 7.855h42.5373l-7.0682-7.855zm20.9731 23.5537-7.062-7.848h42.6187l7.062 7.848zm7.0643 7.8507 3.3679 3.7427-3.6956 4.107h40.8322c.3654-1.3183.5246-2.6925.4769-4.0599.0529-1.2731-.0737-2.5532-.3791-3.7898zm-14.4571 23.5518 7.065-7.8514h42.6187l-7.0649 7.8514zm-6.9763 7.8507-6.9268 7.8531h42.3908l7.0667-7.8531zm-20.774 23.5521 6.9227-7.848h42.251l-7.0626 7.848zm-6.03172 7.851c-.50104 2.673 1.27502 5.574 4.10563 5.529l29.22729-.455c2.0685-.033 4.045-.961 5.5064-2.585l2.2391-2.489z" fill-opacity=".8" fill-rule="evenodd"/></g></svg>